Whiteout 2009 720p BluRay DD5.1 x264-AleX

General
File name                        : Whiteout 2009 720p BluRay DD5.1 x264 Mux AleX-EbP.mkv
Format                           : Matroska
File size                        : 4.82 GiB
Duration                         : 1h 40mn
Overall bit rate                 : 6 855 Kbps
Movie name                       : WhiteOut (2009)
Encoded date                     : UTC 2010-02-07 20:30:29
Writing application              : mkvmerge v2.9.8 ('C'est le bon') built on Aug 13 2009 12:49:06
Writing library                  : libebml v0.7.7 + libmatroska v0.8.1

Video
ID                               : 1
Format                           : AVC
Format/Info                      : Advanced Video Codec
Format profile                   : High@L4.1
Format settings, CABAC           : Yes
Format settings, ReFrames        : 8 frames
Muxing mode                      : Container profile=Unknown@4.1
Codec ID                         : V_MPEG4/ISO/AVC
Duration                         : 1h 40mn
Bit rate                         : 5 436 Kbps
Nominal bit rate                 : 5 577 Kbps
Width                            : 1 280 pixels
Height                           : 534 pixels
Display aspect ratio             : 2.35
Frame rate                       : 23.976 fps
Resolution                       : 24 bits
Colorimetry                      : 4:2:0
Scan type                        : Progressive
Bits/(Pixel*Frame)               : 0.332
Stream size                      : 3.82 GiB (79%)
Title                            : Video 720p BluRay x264
Writing library                  : x264 core 80 r1376M 3feaec2

Encoding settings
cabac=1 / ref=8 / deblock=1:-3:-3 / analyse=0x3:0x113 / me=umh / 
subme=9 / psy=1 / psy_rd=1.0:0.1 / mixed_ref=1 / me_range=32 / 
chroma_me=1 / trellis=2 / 8x8dct=1 / cqm=0 / deadzone=21,11 / 
fast_pskip=0 / chroma_qp_offset=-3 / threads=6 / sliced_threads=0 / 
nr=0 / decimate=1 / mbaff=0 / constrained_intra=0 / bframes=5 / 
b_pyramid=2 / b_adapt=2 / b_bias=0 / direct=3 / wpredb=1 / wpredp=2 / 
keyint=250 / keyint_min=25 / scenecut=40 / rc=2pass / mbtree=0 / 
bitrate=5577 / ratetol=1.0 / qcomp=0.60 / qpmin=10 / qpmax=51 / qpstep=4 / 
cplxblur=20.0 / qblur=0.5 / ip_ratio=1.40 / pb_ratio=1.30 / aq=1:0.70

Audio #1
ID                               : 2
Format                           : AC-3
Format/Info                      : Audio Coding 3
Codec ID                         : A_AC3
Duration                         : 1h 40mn
Bit rate mode                    : Constant
Bit rate                         : 640 Kbps
Channel(s)                       : 6 channels
Channel positions                : Front: L C R, Surround: L R, LFE
Sampling rate                    : 48.0 KHz
Stream size                      : 461 MiB (9%)
Title                            : Italian DD5.1 @ 640 Kbps
Language                         : Italian

Audio #2
ID                               : 3
Format                           : AC-3
Format/Info                      : Audio Coding 3
Codec ID                         : A_AC3
Duration                         : 1h 40mn
Bit rate mode                    : Constant
Bit rate                         : 640 Kbps
Channel(s)                       : 6 channels
Channel positions                : Front: L C R, Surround: L R, LFE
Sampling rate                    : 48.0 KHz
Stream size                      : 461 MiB (9%)
Title                            : English DD5.1 @ 640 Kbps
Language                         : English

Text #1
ID                               : 4
Format                           : UTF-8
Codec ID                         : S_TEXT/UTF8
Codec ID/Info                    : UTF-8 Plain Text
Title                            : Italian Subs (Forced)
Language                         : Italian

Text #2
ID                               : 5
Format                           : UTF-8
Codec ID                         : S_TEXT/UTF8
Codec ID/Info                    : UTF-8 Plain Text
Title                            : Italian Subs
Language                         : Italian

Text #3
ID                               : 6
Format                           : UTF-8
Codec ID                         : S_TEXT/UTF8
Codec ID/Info                    : UTF-8 Plain Text
Title                            : English Subs
Language                         : English

Menu                             : Yes
